{"asset":{"generator":"glTF-Transform v4.0.2","version":"2.0"},"accessors":[{"type":"VEC3","componentType":5126,"count":56,"max":[1,1,1],"min":[-1,-1,-1],"bufferView":0,"byteOffset":0},{"type":"VEC3","componentType":5126,"count":56,"bufferView":0,"byteOffset":12},{"type":"VEC2","componentType":5126,"count":56,"bufferView":0,"byteOffset":24},{"type":"SCALAR","componentType":5123,"count":84,"bufferView":1,"byteOffset":0}],"bufferViews":[{"buffer":0,"byteOffset":0,"byteLength":1792,"byteStride":32,"target":34962},{"buffer":0,"byteOffset":1792,"byteLength":168,"target":34963}],"buffers":[{"uri":"scene.bin","byteLength":1960}],"materials":[{"name":"Material","doubleSided":true,"pbrMetallicRoughness":{"baseColorFactor":[0.3362976908683777,0.18414296209812164,0.04475732520222664,1],"roughnessFactor":0.4000000059604645,"metallicFactor":0}}],"meshes":[{"name":"Cube","primitives":[{"attributes":{"POSITION":0,"NORMAL":1,"TEXCOORD_0":2},"mode":4,"material":0,"indices":3}]}],"nodes":[{"name":"Cube","mesh":0},{"name":"Light","translation":[4.076245307922363,5.903861999511719,-1.0054539442062378],"rotation":[0.16907575726509094,0.7558803558349609,-0.27217137813568115,0.570947527885437]},{"name":"Camera","translation":[7.358891487121582,4.958309173583984,6.925790786743164],"rotation":[0.483536034822464,0.33687159419059753,-0.20870360732078552,0.7804827094078064]}],"scenes":[{"name":"Scene","nodes":[0,1,2]}],"scene":0}